<svg width="215" height="204" viewBox="0 0 215 204" fill="none" xmlns="http://www.w3.org/2000/svg">
<g id="downloaded">
<path id="freccia" d="M95.5 136.5C116.979 155.245 90.5 20.5 90.5 20.5H110.5C135.5 20.5 115.5 124.5 108.5 136.5C101.5 148.5 143.5 100 160.5 88.5C169.51 82.4052 155.497 95.622 160.5 97.5C160.5 97.5 180.416 98.5697 159.5 107.5C141.725 115.089 136.803 126 130 136.5C120.893 150.556 115.511 161 103.5 161C83.5 161 83.5 133.5 60 119.5C52.0429 114.76 44.1389 114.517 40.5 106C37.815 99.7153 60 110 60 110C60 110 51 105.671 54 93.5855C57 81.5 63.4552 102 67.4895 102C77.979 102 86.5499 128.689 95.5 136.5Z" stroke="black" stroke-width="2"/>
</g>
</svg>
